{
  "version": "1.1.6",
  "modules": [
    {
      "id": 1,
      "plugin": "Core",
      "version": "1.1.6",
      "model": "AudioInterface",
      "params": [],
      "leftModuleId": 2,
      "rightModuleId": 8,
      "data": {
        "audio": {
          "driver": 5,
          "deviceName": "Apple Inc.: Built-in Output",
          "offset": 0,
          "maxChannels": 8,
          "sampleRate": 44100,
          "blockSize": 256
        }
      },
      "pos": [
        64,
        0
      ]
    },
    {
      "id": 2,
      "plugin": "Fundamental",
      "version": "1.4.0",
      "model": "VCMixer",
      "params": [
        {
          "id": 0,
          "value": 0.909999967
        },
        {
          "id": 1,
          "value": 0.742462516
        },
        {
          "id": 2,
          "value": 0.151471764
        },
        {
          "id": 3,
          "value": 0.0
        },
        {
          "id": 4,
          "value": 1.0
        }
      ],
      "leftModuleId": 7,
      "rightModuleId": 1,
      "pos": [
        54,
        0
      ]
    },
    {
      "id": 4,
      "plugin": "Fundamental",
      "version": "1.4.0",
      "model": "VCF",
      "params": [
        {
          "id": 0,
          "value": 0.716999948
        },
        {
          "id": 1,
          "value": 0.620000005
        },
        {
          "id": 2,
          "value": 0.632500291
        },
        {
          "id": 3,
          "value": -0.0529997647
        },
        {
          "id": 4,
          "value": 0.580500305
        }
      ],
      "leftModuleId": 17,
      "pos": [
        15,
        0
      ]
    },
    {
      "id": 6,
      "plugin": "Fundamental",
      "version": "1.4.0",
      "model": "ADSR",
      "params": [
        {
          "id": 0,
          "value": 0.536499858
        },
        {
          "id": 1,
          "value": 0.357500345
        },
        {
          "id": 2,
          "value": 0.0705000013
        },
        {
          "id": 3,
          "value": 0.414999872
        }
      ],
      "leftModuleId": 26,
      "rightModuleId": 7,
      "pos": [
        33,
        0
      ]
    },
    {
      "id": 7,
      "plugin": "Fundamental",
      "version": "1.4.0",
      "model": "Scope",
      "params": [
        {
          "id": 0,
          "value": -0.0
        },
        {
          "id": 1,
          "value": 1.05000019
        },
        {
          "id": 2,
          "value": -0.0
        },
        {
          "id": 3,
          "value": 0.71999979
        },
        {
          "id": 4,
          "value": 9.28999996
        },
        {
          "id": 5,
          "value": 0.0
        },
        {
          "id": 6,
          "value": -5.49000311
        },
        {
          "id": 7,
          "value": 0.0
        }
      ],
      "leftModuleId": 6,
      "rightModuleId": 2,
      "data": {
        "lissajous": 0,
        "external": 0
      },
      "pos": [
        41,
        0
      ]
    },
    {
      "id": 8,
      "plugin": "Core",
      "version": "1.1.6",
      "model": "Notes",
      "params": [],
      "leftModuleId": 1,
      "text": "patch instructions:\n\n1. Choose an audio driver and device in the AUDIO-8 module.\n\n2. Drag knobs up/down. Hold Ctrl (Cmd on Mac) while dragging to fine-tune. Right-click knobs to edit, or double-click to initialize.\n\n3. Drag ports to create and move 3ables. Stack multiple cables on outputs by holding Ctrl (Cmd on Mac) and dragging from an output.\n\n4. Right-click on an empty rack space to add new modules.",
      "pos": [
        74,
        0
      ]
    },
    {
      "id": 17,
      "plugin": "VCV-Prototype",
      "version": "1.2.0",
      "model": "Prototype",
      "params": [
        {
          "id": 0,
          "value": 0.655000031
        },
        {
          "id": 1,
          "value": 0.0420000926
        },
        {
          "id": 2,
          "value": 0.595499933
        },
        {
          "id": 3,
          "value": 0.626999915
        },
        {
          "id": 4,
          "value": 0.0
        },
        {
          "id": 5,
          "value": 0.0
        },
        {
          "id": 6,
          "value": 0.0
        },
        {
          "id": 7,
          "value": 0.0
        },
        {
          "id": 8,
          "value": 0.0
        },
        {
          "id": 9,
          "value": 0.0
        },
        {
          "id": 10,
          "value": 0.0
        },
        {
          "id": 11,
          "value": 0.0
        }
      ],
      "rightModuleId": 4,
      "data": {
        "path": "/Users/mp/gitShow2/module2.js",
        "script": "// Voltage-controlled oscillator example\n// by Andrew Belt\n\n// JavaScript isn't ideal for audio generating and processing due to it being 10-100 less efficient than C++, but it's still an easy way to learn simple DSP.\n\nconfig.frameDivider = 1\nconfig.bufferSize = 16\n\nvar phase = 0\nvar phase2 = 0\nfunction process(block) {\n  \n\t// Knob ranges from -5 to 5 octaves\n\tvar pitch = block.knobs[0] * 10 - 5\n\t// Input follows 1V/oct standard\n\tpitch += block.inputs[0][0]\t\t\n\n\t// The relationship between 1V/oct pitch and frequency is `freq = 2^pitch`.\n\t// Default frequency is middle C (C4) in Hz.\n\t// https://vcvrack.com/manual/VoltageStandards.html#pitch-and-frequencies\n\tvar freq = 1.7 * Math.pow(2, pitch)\n\n\t\n  display(\"LFO: \" + freq + \"Hz\")\n\t// Set all samples in output buffer\n\tvar deltaPhase = config.frameDivider * block.sampleTime * freq\n\tfor (var i = 0; i < block.bufferSize; i++) {\n\t\t// Accumulate phase\n\t\tphase += deltaPhase\n\t\t// Wrap phase around range [0, 1]\n\t\tphase %= 1\n\t\t// Convert phase to sine output\n\t\tblock.outputs[0][i] = Math.sin(2 * Math.PI * phase) * 5\n\t\t\n\t} \n}\n"
      },
      "pos": [
        0,
        0
      ]
    },
    {
      "id": 21,
      "plugin": "Fundamental",
      "version": "1.4.0",
      "model": "8vert",
      "params": [
        {
          "id": 0,
          "value": 0.00700006494
        },
        {
          "id": 1,
          "value": 0.489999861
        },
        {
          "id": 2,
          "value": 0.0
        },
        {
          "id": 3,
          "value": 0.0
        },
        {
          "id": 4,
          "value": 0.0
        },
        {
          "id": 5,
          "value": 0.0
        },
        {
          "id": 6,
          "value": 0.0
        },
        {
          "id": 7,
          "value": 0.0
        }
      ],
      "pos": [
        15,
        1
      ]
    },
    {
      "id": 22,
      "plugin": "VCV-Recorder",
      "version": "1.0.1",
      "model": "Recorder",
      "params": [
        {
          "id": 0,
          "value": 0.553000212
        },
        {
          "id": 1,
          "value": 0.0
        }
      ],
      "leftModuleId": 23,
      "data": {
        "format": "wav",
        "path": "/Users/mp/gitShow1/test.wav",
        "incrementPath": true,
        "sampleRate": 44100,
        "depth": 16,
        "bitRate": 320000
      },
      "pos": [
        74,
        1
      ]
    },
    {
      "id": 23,
      "plugin": "Core",
      "version": "1.1.6",
      "model": "Notes",
      "params": [],
      "rightModuleId": 22,
      "text": "recording! this little module simplifies things so we don't have to use jack+daw\n\nremember to save the recording to the git repo, but don't let it be larger than 20MB~",
      "pos": [
        58,
        1
      ]
    },
    {
      "id": 24,
      "plugin": "Fundamental",
      "version": "1.4.0",
      "model": "Scope",
      "params": [
        {
          "id": 0,
          "value": -1.0
        },
        {
          "id": 1,
          "value": -2.15999961
        },
        {
          "id": 2,
          "value": 4.0
        },
        {
          "id": 3,
          "value": 0.150000572
        },
        {
          "id": 4,
          "value": 14.0
        },
        {
          "id": 5,
          "value": 0.0
        },
        {
          "id": 6,
          "value": 0.0
        },
        {
          "id": 7,
          "value": 0.0
        }
      ],
      "data": {
        "lissajous": 0,
        "external": 0
      },
      "pos": [
        0,
        1
      ]
    },
    {
      "id": 25,
      "plugin": "Befaco",
      "version": "1.0.0",
      "model": "Rampage",
      "params": [
        {
          "id": 0,
          "value": 1.0
        },
        {
          "id": 1,
          "value": 1.0
        },
        {
          "id": 2,
          "value": 0.00300003216
        },
        {
          "id": 3,
          "value": -0.579999685
        },
        {
          "id": 4,
          "value": 0.0
        },
        {
          "id": 5,
          "value": 0.0
        },
        {
          "id": 6,
          "value": 0.545999885
        },
        {
          "id": 7,
          "value": 0.485999852
        },
        {
          "id": 8,
          "value": 0.651000619
        },
        {
          "id": 9,
          "value": 0.507000983
        },
        {
          "id": 10,
          "value": 1.0
        },
        {
          "id": 11,
          "value": 1.0
        },
        {
          "id": 12,
          "value": 0.370999992
        }
      ],
      "pos": [
        24,
        1
      ]
    },
    {
      "id": 26,
      "plugin": "Fundamental",
      "version": "1.4.0",
      "model": "LFO2",
      "params": [
        {
          "id": 0,
          "value": 1.0
        },
        {
          "id": 1,
          "value": 0.0
        },
        {
          "id": 2,
          "value": -2.26700282
        },
        {
          "id": 3,
          "value": 0.660000622
        },
        {
          "id": 4,
          "value": 0.44449982
        }
      ],
      "rightModuleId": 6,
      "pos": [
        27,
        0
      ]
    }
  ],
  "cables": [
    {
      "id": 306,
      "outputModuleId": 17,
      "outputId": 0,
      "inputModuleId": 25,
      "inputId": 0,
      "color": "#c9b70e"
    },
    {
      "id": 310,
      "outputModuleId": 25,
      "outputId": 9,
      "inputModuleId": 21,
      "inputId": 1,
      "color": "#c9b70e"
    },
    {
      "id": 334,
      "outputModuleId": 25,
      "outputId": 6,
      "inputModuleId": 22,
      "inputId": 1,
      "color": "#0c8e15"
    },
    {
      "id": 335,
      "outputModuleId": 25,
      "outputId": 1,
      "inputModuleId": 25,
      "inputId": 10,
      "color": "#c91847"
    },
    {
      "id": 338,
      "outputModuleId": 2,
      "outputId": 0,
      "inputModuleId": 22,
      "inputId": 0,
      "color": "#c91847"
    },
    {
      "id": 281,
      "outputModuleId": 2,
      "outputId": 0,
      "inputModuleId": 1,
      "inputId": 0,
      "color": "#0986ad"
    },
    {
      "id": 282,
      "outputModuleId": 2,
      "outputId": 0,
      "inputModuleId": 1,
      "inputId": 1,
      "color": "#c9b70e"
    },
    {
      "id": 308,
      "outputModuleId": 25,
      "outputId": 2,
      "inputModuleId": 6,
      "inputId": 4,
      "color": "#c91847"
    },
    {
      "id": 326,
      "outputModuleId": 25,
      "outputId": 3,
      "inputModuleId": 21,
      "inputId": 0,
      "color": "#c9b70e"
    },
    {
      "id": 344,
      "outputModuleId": 25,
      "outputId": 7,
      "inputModuleId": 21,
      "inputId": 2,
      "color": "#0c8e15"
    },
    {
      "id": 336,
      "outputModuleId": 25,
      "outputId": 10,
      "inputModuleId": 2,
      "inputId": 2,
      "color": "#0986ad"
    },
    {
      "id": 347,
      "outputModuleId": 25,
      "outputId": 5,
      "inputModuleId": 17,
      "inputId": 0,
      "color": "#0c8e15"
    },
    {
      "id": 297,
      "outputModuleId": 2,
      "outputId": 1,
      "inputModuleId": 7,
      "inputId": 0,
      "color": "#c9b70e"
    },
    {
      "id": 343,
      "outputModuleId": 25,
      "outputId": 4,
      "inputModuleId": 26,
      "inputId": 2,
      "color": "#c9b70e"
    },
    {
      "id": 356,
      "outputModuleId": 4,
      "outputId": 1,
      "inputModuleId": 25,
      "inputId": 1,
      "color": "#0c8e15"
    },
    {
      "id": 357,
      "outputModuleId": 4,
      "outputId": 0,
      "inputModuleId": 25,
      "inputId": 4,
      "color": "#c91847"
    },
    {
      "id": 319,
      "outputModuleId": 25,
      "outputId": 0,
      "inputModuleId": 2,
      "inputId": 1,
      "color": "#0c8e15"
    },
    {
      "id": 349,
      "outputModuleId": 2,
      "outputId": 2,
      "inputModuleId": 25,
      "inputId": 6,
      "color": "#c9b70e"
    },
    {
      "id": 359,
      "outputModuleId": 21,
      "outputId": 0,
      "inputModuleId": 17,
      "inputId": 1,
      "color": "#0986ad"
    },
    {
      "id": 360,
      "outputModuleId": 21,
      "outputId": 1,
      "inputModuleId": 2,
      "inputId": 3,
      "color": "#c9b70e"
    },
    {
      "id": 361,
      "outputModuleId": 2,
      "outputId": 3,
      "inputModuleId": 26,
      "inputId": 0,
      "color": "#0c8e15"
    },
    {
      "id": 315,
      "outputModuleId": 26,
      "outputId": 0,
      "inputModuleId": 17,
      "inputId": 2,
      "color": "#0c8e15"
    },
    {
      "id": 362,
      "outputModuleId": 17,
      "outputId": 2,
      "inputModuleId": 6,
      "inputId": 0,
      "color": "#c91847"
    },
    {
      "id": 292,
      "outputModuleId": 6,
      "outputId": 0,
      "inputModuleId": 1,
      "inputId": 2,
      "color": "#0986ad"
    },
    {
      "id": 350,
      "outputModuleId": 25,
      "outputId": 8,
      "inputModuleId": 4,
      "inputId": 0,
      "color": "#0c8e15"
    }
  ]
}